<svg width="130" height="130" viewBox="0 0 130 130" fill="none" xmlns="http://www.w3.org/2000/svg">
<rect x="24" y="70" width="38" height="8" fill="black"/>
<rect x="65" y="78" width="30" height="8" transform="rotate(-90 65 78)" fill="#F36F24"/>
<path fill-rule="evenodd" clip-rule="evenodd" d="M97.3432 48H95V78H97.8994L103 72.8994V53.6568L97.3432 48Z" fill="#F36F24"/>
<rect x="73" y="48" width="24" height="8" fill="#F36F24"/>
<rect x="73" y="70" width="22" height="8" fill="#F36F24"/>
<rect x="73" y="59" width="22" height="8" fill="#F36F24"/>
<rect x="92" y="56" width="3" height="3" fill="#F36F24"/>
<rect x="24" y="59" width="38" height="8" fill="black"/>
<rect x="24" y="67" width="8" height="3" fill="black"/>
<rect x="54" y="56" width="8" height="3" fill="black"/>
<path fill-rule="evenodd" clip-rule="evenodd" d="M24 49.7281V56H62V48H25.7281L24 49.7281Z" fill="black"/>
<path fill-rule="evenodd" clip-rule="evenodd" d="M96.3135 80H24V84H92.3135L96.3135 80Z" fill="black"/>
<path d="M101.299 47.625H100.48V47.2812H102.508V47.625H101.689V50H101.299V47.625ZM102.951 47.2812H103.201L104.17 48.3945L105.135 47.2812H105.385V50H104.994V47.9297L104.879 48.0859L104.17 48.9121L103.461 48.0879L103.342 47.9316V50H102.951V47.2812Z" fill="black"/>
</svg>
